<svg xmlns="http://www.w3.org/2000/svg" width="390" height="844" viewBox="0 0 390 844">
  <defs>
    <clipPath id="swipe-row-clip">
      <rect x="18" y="226" width="354" height="120" rx="14"/>
    </clipPath>
  </defs>

  <rect width="390" height="844" fill="#f5f7fa"/>
  <text x="24" y="46" font-size="18" font-family="Arial" fill="#2f80ed">功能</text>
  <text x="94" y="52" font-size="28" font-family="Arial" fill="#111">量化服务端</text>
  <rect x="290" y="24" width="76" height="34" rx="8" fill="#2f80ed"/>
  <text x="304" y="46" font-size="16" font-family="Arial" fill="#fff">+ 添加</text>

  <rect x="18" y="90" width="354" height="120" rx="14" fill="#fff" stroke="#d7dbe2"/>
  <text x="34" y="128" font-size="20" font-family="Arial" fill="#111">招商证券-主账户</text>
  <text x="34" y="158" font-size="14" font-family="Arial" fill="#667085">peerClientID: strategy-cn-001</text>
  <text x="300" y="158" font-size="14" font-family="Arial" fill="#16a34a">在线</text>

  <text x="236" y="214" font-size="14" font-family="Arial" fill="#667085">向左滑动</text>
  <line x1="218" y1="208" x2="146" y2="208" stroke="#98a2b3" stroke-width="2"/>
  <polygon points="146,208 156,202 156,214" fill="#98a2b3"/>

  <rect x="18" y="226" width="354" height="120" rx="14" fill="#fff7ed" stroke="#fed7aa"/>
  <rect x="244" y="226" width="64" height="120" rx="14" fill="#f59e0b"/>
  <line x1="264" y1="276" x2="280" y2="260" stroke="#fff" stroke-width="3" stroke-linecap="round"/>
  <polygon points="281,259 286,254 290,258 285,263" fill="#fff"/>
  <line x1="262" y1="282" x2="286" y2="282" stroke="#fff" stroke-width="2" stroke-linecap="round"/>
  <text x="257" y="308" font-size="18" font-family="Arial" fill="#fff">编辑</text>
  <rect x="308" y="226" width="64" height="120" rx="14" fill="#dc2626"/>
  <rect x="330" y="258" width="20" height="20" rx="3" fill="none" stroke="#fff" stroke-width="2"/>
  <line x1="326" y1="258" x2="354" y2="258" stroke="#fff" stroke-width="2"/>
  <line x1="336" y1="248" x2="344" y2="248" stroke="#fff" stroke-width="2"/>
  <line x1="337" y1="262" x2="337" y2="274" stroke="#fff" stroke-width="2"/>
  <line x1="343" y1="262" x2="343" y2="274" stroke="#fff" stroke-width="2"/>
  <text x="321" y="304" font-size="18" font-family="Arial" fill="#fff">删除</text>

  <g clip-path="url(#swipe-row-clip)">
    <rect x="-110" y="226" width="354" height="120" rx="14" fill="#fff" stroke="#d7dbe2"/>
    <text x="-94" y="264" font-size="20" font-family="Arial" fill="#111">美股账户A</text>
    <text x="-94" y="294" font-size="14" font-family="Arial" fill="#667085">peerClientID: strategy-us-007</text>
    <text x="172" y="294" font-size="14" font-family="Arial" fill="#667085">空闲</text>
  </g>

  <rect x="18" y="362" width="354" height="120" rx="14" fill="#fff" stroke="#d7dbe2"/>
  <text x="34" y="400" font-size="20" font-family="Arial" fill="#111">CTA账户B</text>
  <text x="34" y="430" font-size="14" font-family="Arial" fill="#667085">peerClientID: strategy-futures-002</text>
  <text x="286" y="430" font-size="14" font-family="Arial" fill="#dc2626">重连中</text>
</svg>
