<svg xmlns="http://www.w3.org/2000/svg" width="390" height="844" viewBox="0 0 390 844">
  <rect width="390" height="844" fill="#f5f7fa"/>
  <polyline points="22,38 14,46 22,54" fill="none" stroke="#2f80ed" stroke-width="2.5" stroke-linecap="round" stroke-linejoin="round"/>
  <text x="28" y="50" font-size="17" font-family="Arial" fill="#2f80ed">功能</text>
  <text x="104" y="52" font-size="28" font-family="Arial" fill="#111">设置</text>

  <text x="24" y="112" font-size="14" font-family="Arial" fill="#667085">我的ID</text>
  <rect x="24" y="120" width="342" height="52" rx="10" fill="#fff" stroke="#d7dbe2"/>
  <text x="36" y="152" font-size="16" font-family="Arial" fill="#111">ios-trader-001</text>
  <rect x="24" y="182" width="120" height="36" rx="8" fill="#eff6ff" stroke="#2f80ed"/>
  <text x="46" y="206" font-size="14" font-family="Arial" fill="#2f80ed">复制我的ID</text>

  <text x="24" y="266" font-size="14" font-family="Arial" fill="#667085">Relay Host</text>
  <rect x="24" y="274" width="342" height="52" rx="10" fill="#fff" stroke="#d7dbe2"/>
  <text x="36" y="306" font-size="16" font-family="Arial" fill="#111">10.0.0.2</text>

  <text x="24" y="360" font-size="14" font-family="Arial" fill="#667085">Relay Port</text>
  <rect x="24" y="368" width="342" height="52" rx="10" fill="#fff" stroke="#d7dbe2"/>
  <text x="36" y="400" font-size="16" font-family="Arial" fill="#111">33333</text>

  <text x="24" y="462" font-size="14" font-family="Arial" fill="#667085">自动重连</text>
  <rect x="310" y="438" width="56" height="30" rx="15" fill="#2f80ed"/>
  <circle cx="348" cy="453" r="12" fill="#fff"/>

  <text x="24" y="536" font-size="14" font-family="Arial" fill="#667085">响应超时（秒）</text>
  <rect x="24" y="544" width="342" height="52" rx="10" fill="#fff" stroke="#d7dbe2"/>
  <text x="36" y="576" font-size="16" font-family="Arial" fill="#111">15</text>

  <rect x="24" y="634" width="140" height="44" rx="10" fill="#2f80ed"/>
  <text x="56" y="662" font-size="16" font-family="Arial" fill="#fff">测试连接</text>
</svg>
